# xmcd
#
# Track frame offsets:
#	150
#	23089
#	44420
#	67465
#	88016
#	106049
#	127104
#	145048
#	159134
#	181952
#	202203
#	217233
#	236442
#	256121
#	274451
#	288599
#	306897
#
# Disc length: 4283 seconds
#
# Revision: 0
# Processed by: cddbd v1.5.2PL0 Copyright (c) Steve Scherf et al.
# Submitted via: EasyCDDAExtractor 12.0.7.1
#
DISCID=0610b911
DTITLE=Кабриолет - Аллея шансона
DYEAR=2011
DGENRE=Chanson
TTITLE0=Цепи
TTITLE1=Кусаю руки
TTITLE2=Неповторимая
TTITLE3=Не ругай меня, мама
TTITLE4=Марианна
TTITLE5=Малыш
TTITLE6=Ты меня позови
TTITLE7=А, что цыгане делают
TTITLE8=Я тобою околдован
TTITLE9=Вези меня карета
TTITLE10=Все для тебя
TTITLE11=Бессердечная
TTITLE12=Конь мой вороной
TTITLE13=Ты мне подари судьба
TTITLE14=Любовь цыгана
TTITLE15=Трики-трики
TTITLE16=Трики-трики
EXTD=
EXTT0=
EXTT1=
EXTT2=
EXTT3=
EXTT4=
EXTT5=
EXTT6=
EXTT7=
EXTT8=
EXTT9=
EXTT10=
EXTT11=
EXTT12=
EXTT13=
EXTT14=
EXTT15=
EXTT16=
PLAYORDER=
